<?xml version="1.0" standalone="no"?>
<!DOCTYPE svg PUBLIC "-//W3C//DTD SVG 20010904//EN"
 "http://www.w3.org/TR/2001/REC-SVG-20010904/DTD/svg10.dtd">
<svg version="1.0" xmlns="http://www.w3.org/2000/svg"
 width="70" height="70" viewBox="-90 -90 610 610"
 preserveAspectRatio="xMidYMid meet">
<metadata>
Created by potrace 1.14, written by Peter Selinger 2001-2017
</metadata>
<g transform="translate(0.000000,442.000000) scale(0.100000,-0.100000)" fill="#1785A7" stroke="none">
<path d="M1705 4144 c-347 -54 -660 -191 -937 -412 -490 -390 -770 -1037 -719
-1657 99 -1185 1181 -1998 2343 -1760 269 55 536 174 749 332 36 27 70 53 76
56 7 5 29 -26 58 -81 59 -111 124 -199 210 -281 l67 -64 121 128 122 128 308
-118 c169 -65 310 -115 314 -111 3 3 -25 39 -64 79 -118 122 -191 248 -253
442 -78 245 -96 434 -84 910 19 733 5 912 -92 1226 l-36 116 -87 -27 c-207
-67 -434 -96 -678 -86 l-162 6 14 -39 c74 -210 124 -602 103 -799 -35 -324
-178 -588 -423 -776 -100 -78 -145 -104 -264 -151 -288 -114 -614 -100 -891
40 -541 273 -756 932 -480 1475 130 256 383 463 665 545 237 69 465 57 945
-50 269 -60 391 -70 640 -56 235 13 450 62 631 143 l67 30 141 218 c77 120
151 235 163 256 l22 37 -30 -7 c-62 -14 -393 -19 -520 -7 -247 23 -510 76
-794 159 -181 53 -506 127 -666 152 -155 24 -439 26 -579 4z">
       <animateTransform
            attributeType="xml"
            attributeName="transform"
            type="rotate"
            from="0 2110 2210"
            to="360 2110 2210"
            dur="5.0s"
            repeatCount="indefinite"
        />
</path>
</g>
</svg>
